{
  "accessors": [
    {
      "bufferView": 2,
      "componentType": 5126,
      "count": 2134,
      "max": [
        20.622306823730469,
        49.723152160644531,
        132.89045715332031
      ],
      "min": [
        -39.868663787841797,
        -29.615749359130859,
        60.064933776855469
      ],
      "type": "VEC3"
    },
    {
      "bufferView": 2,
      "byteOffset": 25608,
      "componentType": 5126,
      "count": 2134,
      "max": [
        0.99857580661773682,
        0.99918878078460693,
        0.99998712539672852
      ],
      "min": [
        -0.99949723482131958,
        -0.99921560287475586,
        -0.9983934760093689
      ],
      "type": "VEC3"
    },
    {
      "bufferView": 3,
      "componentType": 5126,
      "count": 2134,
      "max": [
        1,
        1,
        1,
        1
      ],
      "min": [
        1,
        1,
        1,
        1
      ],
      "type": "VEC4"
    },
    {
      "bufferView": 1,
      "componentType": 5126,
      "count": 2134,
      "max": [
        0.99378681182861328,
        0.99654823541641235
      ],
      "min": [
        0.0038173049688339233,
        0.0015372179914265871
      ],
      "type": "VEC2"
    },
    {
      "bufferView": 0,
      "componentType": 5125,
      "count": 8721,
      "max": [
        2133
      ],
      "min": [
        0
      ],
      "type": "SCALAR"
    },
    {
      "bufferView": 2,
      "byteOffset": 51216,
      "componentType": 5126,
      "count": 4156,
      "max": [
        83.146194458007812,
        98.940780639648438,
        94.479293823242188
      ],
      "min": [
        -68.469253540039062,
        -47.561729431152344,
        -69.317008972167969
      ],
      "type": "VEC3"
    },
    {
      "bufferView": 2,
      "byteOffset": 101088,
      "componentType": 5126,
      "count": 4156,
      "max": [
        0.99947571754455566,
        0.99992722272872925,
        0.99898362159729004
      ],
      "min": [
        -0.99918347597122192,
        -0.99947035312652588,
        -0.99969196319580078
      ],
      "type": "VEC3"
    },
    {
      "bufferView": 3,
      "byteOffset": 34144,
      "componentType": 5126,
      "count": 4156,
      "max": [
        1,
        1,
        1,
        1
      ],
      "min": [
        1,
        1,
        1,
        1
      ],
      "type": "VEC4"
    },
    {
      "bufferView": 1,
      "byteOffset": 17072,
      "componentType": 5126,
      "count": 4156,
      "max": [
        0.99620884656906128,
        0.9955868124961853
      ],
      "min": [
        0.0028375359252095222,
        0.0018454762175679207
      ],
      "type": "VEC2"
    },
    {
      "bufferView": 0,
      "byteOffset": 34884,
      "componentType": 5125,
      "count": 14826,
      "max": [
        4155
      ],
      "min": [
        0
      ],
      "type": "SCALAR"
    },
    {
      "bufferView": 2,
      "byteOffset": 150960,
      "componentType": 5126,
      "count": 3780,
      "max": [
        41.577606201171875,
        45.749034881591797,
        108.63978576660156
      ],
      "min": [
        -34.506954193115234,
        -50.164390563964844,
        -108.67105865478516
      ],
      "type": "VEC3"
    },
    {
      "bufferView": 2,
      "byteOffset": 196320,
      "componentType": 5126,
      "count": 3780,
      "max": [
        0.99979448318481445,
        0.99998366832733154,
        0.99950200319290161
      ],
      "min": [
        -0.99990677833557129,
        -0.99991631507873535,
        -1
      ],
      "type": "VEC3"
    },
    {
      "bufferView": 3,
      "byteOffset": 100640,
      "componentType": 5126,
      "count": 3780,
      "max": [
        1,
        1,
        1,
        1
      ],
      "min": [
        1,
        1,
        1,
        1
      ],
      "type": "VEC4"
    },
    {
      "bufferView": 1,
      "byteOffset": 50320,
      "componentType": 5126,
      "count": 3780,
      "max": [
        0.9959559440612793,
        0.99595558643341064
      ],
      "min": [
        0.0020214845426380634,
        0.0042761773802340031
      ],
      "type": "VEC2"
    },
    {
      "bufferView": 0,
      "byteOffset": 94188,
      "componentType": 5125,
      "count": 14844,
      "max": [
        3779
      ],
      "min": [
        0
      ],
      "type": "SCALAR"
    },
    {
      "bufferView": 2,
      "byteOffset": 241680,
      "componentType": 5126,
      "count": 178,
      "max": [
        53.725635528564453,
        -37.24365234375,
        124.28853607177734
      ],
      "min": [
        35.637283325195312,
        -60.121417999267578,
        105.82102966308594
      ],
      "type": "VEC3"
    },
    {
      "bufferView": 2,
      "byteOffset": 243816,
      "componentType": 5126,
      "count": 178,
      "max": [
        0.91699343919754028,
        0.90498447418212891,
        0.97606176137924194
      ],
      "min": [
        -0.81057840585708618,
        -0.92097592353820801,
        -0.9048086404800415
      ],
      "type": "VEC3"
    },
    {
      "bufferView": 3,
      "byteOffset": 161120,
      "componentType": 5126,
      "count": 178,
      "max": [
        1,
        1,
        1,
        1
      ],
      "min": [
        1,
        1,
        1,
        1
      ],
      "type": "VEC4"
    },
    {
      "bufferView": 1,
      "byteOffset": 80560,
      "componentType": 5126,
      "count": 178,
      "max": [
        0.98209261894226074,
        0.98377054929733276
      ],
      "min": [
        0.012579410336911678,
        0.0036775183398276567
      ],
      "type": "VEC2"
    },
    {
      "bufferView": 0,
      "byteOffset": 153564,
      "componentType": 5125,
      "count": 588,
      "max": [
        177
      ],
      "min": [
        0
      ],
      "type": "SCALAR"
    }
  ],
  "asset": {
    "extras": {
      "author": "maggiekim (https://sketchfab.com/maggiekim)",
      "license": "CC-BY-4.0 (http://creativecommons.org/licenses/by/4.0/)",
      "source": "https://sketchfab.com/3d-models/butterfly-girl-e149897ddf354aa18dfcf27e6a78921d",
      "title": "butterfly girl"
    },
    "generator": "Sketchfab-8.20.0",
    "version": "2.0"
  },
  "bufferViews": [
    {
      "buffer": 0,
      "byteLength": 155916,
      "byteOffset": 0,
      "name": "floatBufferViews",
      "target": 34963
    },
    {
      "buffer": 0,
      "byteLength": 81984,
      "byteOffset": 155916,
      "byteStride": 8,
      "name": "floatBufferViews",
      "target": 34962
    },
    {
      "buffer": 0,
      "byteLength": 245952,
      "byteOffset": 237900,
      "byteStride": 12,
      "name": "floatBufferViews",
      "target": 34962
    },
    {
      "buffer": 0,
      "byteLength": 163968,
      "byteOffset": 483852,
      "byteStride": 16,
      "name": "floatBufferViews",
      "target": 34962
    }
  ],
  "buffers": [
    {
      "byteLength": 647820,
      "uri": "scene.bin"
    }
  ],
  "extensionsUsed": [
    "KHR_materials_unlit"
  ],
  "images": [
    {
      "uri": "textures/face_baseColor.png"
    },
    {
      "uri": "textures/robe_baseColor.png"
    },
    {
      "uri": "textures/body_baseColor.png"
    },
    {
      "uri": "textures/butterfly_baseColor.png"
    }
  ],
  "materials": [
    {
      "doubleSided": true,
      "emissiveFactor": [
        0,
        0,
        0
      ],
      "extensions": {
        "KHR_materials_unlit": {}
      },
      "name": "face",
      "pbrMetallicRoughness": {
        "baseColorFactor": [
          1,
          1,
          1,
          1
        ],
        "baseColorTexture": {
          "index": 0,
          "texCoord": 0
        },
        "metallicFactor": 0,
        "roughnessFactor": 1
      }
    },
    {
      "doubleSided": true,
      "emissiveFactor": [
        0,
        0,
        0
      ],
      "extensions": {
        "KHR_materials_unlit": {}
      },
      "name": "robe",
      "pbrMetallicRoughness": {
        "baseColorFactor": [
          1,
          1,
          1,
          1
        ],
        "baseColorTexture": {
          "index": 1,
          "texCoord": 0
        },
        "metallicFactor": 0,
        "roughnessFactor": 1
      }
    },
    {
      "doubleSided": true,
      "emissiveFactor": [
        0,
        0,
        0
      ],
      "extensions": {
        "KHR_materials_unlit": {}
      },
      "name": "body",
      "pbrMetallicRoughness": {
        "baseColorFactor": [
          1,
          1,
          1,
          1
        ],
        "baseColorTexture": {
          "index": 2,
          "texCoord": 0
        },
        "metallicFactor": 0,
        "roughnessFactor": 1
      }
    },
    {
      "doubleSided": true,
      "emissiveFactor": [
        0,
        0,
        0
      ],
      "extensions": {
        "KHR_materials_unlit": {}
      },
      "name": "butterfly",
      "pbrMetallicRoughness": {
        "baseColorFactor": [
          1,
          1,
          1,
          1
        ],
        "baseColorTexture": {
          "index": 3,
          "texCoord": 0
        },
        "metallicFactor": 0,
        "roughnessFactor": 1
      }
    }
  ],
  "meshes": [
    {
      "name": "face_face_0",
      "primitives": [
        {
          "attributes": {
            "COLOR_0": 2,
            "NORMAL": 1,
            "POSITION": 0,
            "TEXCOORD_0": 3
          },
          "indices": 4,
          "material": 0,
          "mode": 4
        }
      ]
    },
    {
      "name": "robe_robe_0",
      "primitives": [
        {
          "attributes": {
            "COLOR_0": 7,
            "NORMAL": 6,
            "POSITION": 5,
            "TEXCOORD_0": 8
          },
          "indices": 9,
          "material": 1,
          "mode": 4
        }
      ]
    },
    {
      "name": "body_body_0",
      "primitives": [
        {
          "attributes": {
            "COLOR_0": 12,
            "NORMAL": 11,
            "POSITION": 10,
            "TEXCOORD_0": 13
          },
          "indices": 14,
          "material": 2,
          "mode": 4
        }
      ]
    },
    {
      "name": "butterfly_butterfly_0",
      "primitives": [
        {
          "attributes": {
            "COLOR_0": 17,
            "NORMAL": 16,
            "POSITION": 15,
            "TEXCOORD_0": 18
          },
          "indices": 19,
          "material": 3,
          "mode": 4
        }
      ]
    }
  ],
  "nodes": [
    {
      "children": [
        1
      ],
      "name": "RootNode (gltf orientation matrix)",
      "rotation": [
        -0.70710678118654746,
        -0,
        -0,
        0.70710678118654757
      ]
    },
    {
      "children": [
        2
      ],
      "matrix": [
        1,
        0,
        0,
        0,
        0,
        1,
        0,
        0,
        0,
        0,
        1,
        0,
        0,
        -7.1054273576010019e-15,
        -2.9894579256506404e-08,
        1
      ],
      "name": "RootNode (model correction matrix)"
    },
    {
      "children": [
        3
      ],
      "matrix": [
        1,
        0,
        0,
        0,
        0,
        0,
        1,
        0,
        0,
        -1,
        0,
        0,
        0,
        0,
        0,
        1
      ],
      "name": "butterfly.FBX"
    },
    {
      "children": [
        4,
        7,
        10,
        13
      ],
      "name": "RootNode"
    },
    {
      "children": [
        5
      ],
      "matrix": [
        1,
        0,
        0,
        0,
        0,
        -1.5258150298791406e-09,
        -1,
        0,
        0,
        1,
        -1.5258150298791406e-09,
        0,
        0,
        0,
        -1.5526211427641101e-05,
        1
      ],
      "name": "face"
    },
    {
      "children": [
        6
      ],
      "matrix": [
        1,
        0,
        -0,
        0,
        0,
        1,
        0,
        0,
        0,
        0,
        1,
        0,
        6.4074993133544922e-07,
        -1.9253997802734375,
        109.00050354003906,
        1
      ],
      "name": ""
    },
    {
      "mesh": 0,
      "name": "face_face_0"
    },
    {
      "children": [
        8
      ],
      "matrix": [
        1,
        0,
        0,
        0,
        0,
        2.2204460492503131e-16,
        -1,
        0,
        0,
        1,
        2.2204460492503131e-16,
        0,
        0,
        0,
        -1.5526211427641101e-05,
        1
      ],
      "name": "robe"
    },
    {
      "children": [
        9
      ],
      "matrix": [
        1,
        0,
        -0,
        0,
        0,
        1,
        0,
        0,
        0,
        0,
        1,
        0,
        6.4074993133544922e-07,
        -1.9253997802734375,
        109.00050354003906,
        1
      ],
      "name": ""
    },
    {
      "mesh": 1,
      "name": "robe_robe_0"
    },
    {
      "children": [
        11
      ],
      "matrix": [
        1,
        0,
        0,
        0,
        0,
        2.2204460492503131e-16,
        -1,
        0,
        0,
        1,
        2.2204460492503131e-16,
        0,
        0,
        0,
        -1.5526211427641101e-05,
        1
      ],
      "name": "body"
    },
    {
      "children": [
        12
      ],
      "matrix": [
        1,
        0,
        -0,
        0,
        0,
        1,
        0,
        0,
        0,
        0,
        1,
        0,
        6.4074993133544922e-07,
        -1.9253997802734375,
        109.00050354003906,
        1
      ],
      "name": ""
    },
    {
      "mesh": 2,
      "name": "body_body_0"
    },
    {
      "children": [
        14
      ],
      "matrix": [
        1,
        0,
        0,
        0,
        0,
        2.2204460492503131e-16,
        -1,
        0,
        0,
        1,
        2.2204460492503131e-16,
        0,
        0,
        0,
        -1.5526211427641101e-05,
        1
      ],
      "name": "butterfly"
    },
    {
      "children": [
        15
      ],
      "matrix": [
        1,
        0,
        -0,
        0,
        0,
        1,
        0,
        0,
        0,
        0,
        1,
        0,
        6.4074993133544922e-07,
        -1.9253997802734375,
        109.00050354003906,
        1
      ],
      "name": ""
    },
    {
      "mesh": 3,
      "name": "butterfly_butterfly_0"
    }
  ],
  "samplers": [
    {
      "magFilter": 9729,
      "minFilter": 9987,
      "wrapS": 10497,
      "wrapT": 10497
    }
  ],
  "scene": 0,
  "scenes": [
    {
      "name": "OSG_Scene",
      "nodes": [
        0
      ]
    }
  ],
  "textures": [
    {
      "sampler": 0,
      "source": 0
    },
    {
      "sampler": 0,
      "source": 1
    },
    {
      "sampler": 0,
      "source": 2
    },
    {
      "sampler": 0,
      "source": 3
    }
  ]
}

